<?xml version="1.0" encoding="UTF-8"?>
<svg version="1.1" xmlns="http://www.w3.org/2000/svg" width="1017" height="369">
<path d="M0 0 C1.56609674 0.09556675 3.13221155 0.19083774 4.69834256 0.28584117 C8.9836191 0.54663933 13.26862982 0.81159493 17.5536077 1.07724893 C22.1934817 1.36416001 26.83359415 1.64716521 31.47367859 1.9306488 C39.54796269 2.42446854 47.6220938 2.92072933 55.69612885 3.4186039 C67.56887994 4.15069252 79.44187561 4.87875267 91.31493106 5.60588654 C110.84424517 6.80199499 130.37338365 8.0009462 149.90240479 9.201828 C192.03083575 11.79237549 234.15962427 14.37709454 276.28851188 16.96020432 C283.07174997 17.37611901 289.85498217 17.79212969 296.63821016 18.20820922 C359.48219984 22.0629281 422.32801357 25.88572396 485.17702144 29.65776473 C488.01148 29.82788418 490.84593701 29.99802945 493.6803937 30.16817999 C527.55277687 32.2014373 561.4253954 34.23076332 595.2982446 36.25624198 C603.33248386 36.73667685 611.3667149 37.21724913 619.40093994 37.69792175 C620.27901125 37.75045416 621.15708256 37.80298657 622.06176209 37.85711087 C651.07702775 39.59314328 680.09158183 41.34072803 709.10536295 43.10140167 C713.23415527 43.35194862 717.36295532 43.60236796 721.49176025 43.85270691 C722.30949948 43.90229114 723.12723871 43.95187537 723.96975791 44.00296215 C737.66699484 44.8331584 751.36492853 45.6513503 765.06309153 46.46610587 C779.53270282 47.3270039 794.00154965 48.19996288 808.46974647 49.08431727 C817.20814595 49.61807911 825.9469783 50.14286578 834.68667488 50.65495963 C840.5595612 50.99997027 846.43165974 51.35672953 852.30327137 51.7227894 C855.66368027 51.93195291 859.02411988 52.13430383 862.38559532 52.32600975 C882.85085508 53.49773584 898.80228116 54.83460785 913.69390869 70.37492371 C922.49456833 80.85620213 925.99465838 92.36518347 925.19390869 105.81242371 C925.11825684 107.27542908 925.11825684 107.27542908 925.04107666 108.76799011 C924.87746582 111.7936762 924.69874639 114.81817129 924.51611328 117.84275818 C924.3639896 120.42003804 924.22116861 122.99775038 924.0791626 125.5756073 C923.79691461 130.67903592 923.49907824 135.7813815 923.19204712 140.88337708 C923.06906159 142.94809034 922.94957064 145.01301495 922.83370972 147.07814026 C922.66616612 150.02948514 922.48268084 152.97945615 922.29547119 155.92961121 C922.24848587 156.80812241 922.20150055 157.68663361 922.15309143 158.59176636 C921.61416415 166.62017735 919.99270083 174.40012267 915.38140869 181.12492371 C913.21747573 184.50341708 911.86936564 187.42528358 910.88140869 191.31242371 C909.30317106 197.12362239 906.54258702 200.99746403 901.52984619 204.37101746 C888.38282137 211.5206943 874.35230022 209.59697959 860.38140869 206.12492371 C860.38140869 205.79492371 860.38140869 205.46492371 860.38140869 205.12492371 C862.69140869 205.12492371 865.00140869 205.12492371 867.38140869 205.12492371 C862.57671519 204.79003042 857.77137695 204.46888608 852.96490479 204.16056824 C851.32923551 204.05368935 849.69380894 203.94302713 848.05865479 203.82853699 C845.71104276 203.66481632 843.36289996 203.51462919 841.01422119 203.36711121 C840.28083527 203.31304108 839.54744934 203.25897095 838.7918396 203.20326233 C836.9913109 203.09692571 835.18492279 203.10151511 833.38140869 203.12492371 C832.72140869 203.78492371 832.06140869 204.44492371 831.38140869 205.12492371 C828.81537295 205.32664675 826.38338922 205.40807005 823.81890869 205.37492371 C822.73561279 205.36694763 822.73561279 205.36694763 821.63043213 205.35881042 C815.89477243 205.2570778 809.71294312 205.14519058 804.67437744 202.08976746 C801.20680669 200.6306704 797.6539826 200.69232382 793.94390869 200.56242371 C784.82838246 200.19467286 784.82838246 200.19467286 780.38140869 199.12492371 C780.53537109 199.77517517 780.6893335 200.42542664 780.84796143 201.09538269 C781.52117331 204.91867159 781.72549185 208.7272599 781.91656494 212.59757996 C781.959814 213.42534439 782.00306305 214.25310883 782.04762268 215.10595703 C782.18556729 217.79952679 782.31609638 220.49335479 782.44390869 223.18742371 C782.48743469 224.10420898 782.53096069 225.02099426 782.57580566 225.96556091 C783.12014071 237.63931682 783.6196443 249.31344651 783.75640869 260.99992371 C783.78227051 262.08281677 783.80813232 263.16570984 783.83477783 264.28141785 C783.8579398 273.72477447 781.24175208 281.10360519 776.38140869 289.12492371 C775.76116122 290.88316759 775.1782632 292.65498756 774.63140869 294.43742371 C772.13217094 301.46179647 768.25142088 306.77809247 761.69390869 310.49992371 C751.50797156 314.89041385 741.13346314 314.21188003 730.38140869 313.12492371 C730.38140869 312.79492371 730.38140869 312.46492371 730.38140869 312.12492371 C719.17629928 311.97986071 708.04522582 312.43797114 696.85797119 312.99992371 C695.01711449 313.08990126 693.176243 313.17957686 691.33535767 313.26896667 C686.53824007 313.50270394 681.74133161 313.7404864 676.94445801 313.97917175 C672.03033433 314.22295361 667.11601993 314.4628265 662.20172119 314.70304871 C652.59476198 315.17322616 642.9880196 315.64768619 633.38140869 316.12492371 C633.05140869 316.78492371 632.72140869 317.44492371 632.38140869 318.12492371 C629.61817284 318.75540001 626.92754429 319.26034581 624.13140869 319.68742371 C623.30802002 319.81673279 622.48463135 319.94604187 621.6362915 320.07926941 C611.07454097 321.68823784 600.6813211 322.2052258 590.00640869 322.24992371 C588.59633545 322.25705383 588.59633545 322.25705383 587.15777588 322.264328 C582.12441627 322.252207 577.34221755 321.98589053 572.38140869 321.12492371 C572.71140869 320.46492371 573.04140869 319.80492371 573.38140869 319.12492371 C570.88031677 319.54177236 568.75528873 319.92552102 566.50640869 321.12492371 C558.3765317 324.95074817 546.97539077 323.6874659 538.38140869 322.12492371 C538.38140869 321.79492371 538.38140869 321.46492371 538.38140869 321.12492371 C522.37086924 321.6398971 506.37470544 322.21473609 490.38140869 323.12492371 C496.65140869 323.12492371 502.92140869 323.12492371 509.38140869 323.12492371 C509.38140869 323.45492371 509.38140869 323.78492371 509.38140869 324.12492371 C506.08294848 324.8483955 502.94570929 325.27946691 499.57281494 325.40617371 C498.66740967 325.44307312 497.76200439 325.47997253 496.8291626 325.51799011 C495.87702881 325.5532782 494.92489502 325.58856628 493.94390869 325.62492371 C487.44946169 325.88427467 480.98298034 326.20141927 474.50640869 326.74992371 C469.59518739 327.13361287 465.22630919 326.9970058 460.38140869 326.12492371 C460.38140869 325.79492371 460.38140869 325.46492371 460.38140869 325.12492371 C450.24798661 325.01979649 440.17621523 325.33754608 430.0581665 325.85929871 C428.47270759 325.93843129 426.88723239 326.01723827 425.30174255 326.0957489 C421.91391554 326.26409193 418.52620071 326.43449078 415.13855743 326.60649109 C409.75371725 326.87966792 404.36858789 327.14681895 398.98339844 327.41300964 C383.67836998 328.17045918 368.37376156 328.93621448 353.06939697 329.70695496 C344.59608549 330.13362435 336.12254927 330.55553531 327.64876246 330.97266006 C323.18558433 331.19259663 318.72255515 331.41491132 314.25980377 331.64335632 C282.47938007 333.26767966 282.47938007 333.26767966 266.74761963 333.48429871 C265.25725882 333.52469269 265.25725882 333.52469269 263.7367897 333.56590271 C252.00183905 333.61210573 242.3736019 329.50430392 233.38140869 322.12492371 C232.67113525 321.55129089 231.96086182 320.97765808 231.22906494 320.38664246 C222.81133309 312.84138185 217.53650192 301.54217478 216.88140869 290.35148621 C216.84107513 289.68022705 216.80074158 289.0089679 216.75918579 288.31736755 C216.62892824 286.12844913 216.50483157 283.9392374 216.38140869 281.74992371 C216.29382767 280.23575505 216.20609907 278.72159492 216.1182251 277.20744324 C215.90463313 273.50204793 215.69703699 269.79634379 215.49139404 266.09049988 C215.3942881 264.35509481 215.29386373 262.61987611 215.19293213 260.88468933 C214.84903561 254.96637435 214.57388718 249.05010955 214.38140869 243.12492371 C214.34740967 242.15812683 214.31341064 241.19132996 214.27838135 240.19523621 C213.78005416 224.28923942 214.66835503 213.20835391 224.38140869 200.12492371 C225.00015869 199.23804871 225.61890869 198.35117371 226.25640869 197.43742371 C238.42909793 184.19067365 253.91759751 182.10343059 271.034729 181.34709167 C272.83689125 181.25887146 272.83689125 181.25887146 274.67546082 181.16886902 C277.92856492 181.01099009 281.18188292 180.85932208 284.43541431 180.71056128 C287.85090632 180.55287395 291.26600332 180.38704228 294.68115234 180.22212219 C301.12973972 179.91193083 307.57864337 179.60892767 314.02769637 179.30859005 C321.37756098 178.96594387 328.72703024 178.61515735 336.07647943 178.26373076 C351.17770378 177.54182018 366.2793878 176.82998991 381.38140869 176.12492371 C377.4069709 175.22426941 373.54384041 174.86780512 369.47813416 174.62503052 C368.79599234 174.58334057 368.11385052 174.54165062 367.41103774 174.49869734 C365.13271143 174.36030076 362.85412189 174.22687258 360.57550049 174.09342957 C358.93929778 173.99506031 357.3031135 173.89638418 355.66694641 173.79742432 C351.22954994 173.52991082 346.79190797 173.26669113 342.35420966 173.00423884 C337.71491804 172.72913226 333.07586373 172.45008126 328.43678284 172.17144775 C319.6539547 171.6445335 310.87091876 171.12116932 302.08780271 170.59907871 C292.08771229 170.00447474 282.08785983 169.40591587 272.08802545 168.80702388 C251.51941502 167.57525484 230.95051067 166.3484553 210.38140869 165.12492371 C210.38140869 165.45492371 210.38140869 165.78492371 210.38140869 166.12492371 C201.22906266 168.10380933 192.40027057 167.31605718 183.38140869 165.12492371 C183.38140869 164.79492371 183.38140869 164.46492371 183.38140869 164.12492371 C177.71995878 162.87203783 172.0965413 162.69489396 166.31890869 162.43742371 C164.68598877 162.3475116 164.68598877 162.3475116 163.02008057 162.25578308 C161.97271729 162.2087323 160.925354 162.16168152 159.84625244 162.11320496 C158.89355469 162.06720154 157.94085693 162.02119812 156.95928955 161.97380066 C154.21227066 162.13483908 152.74312549 162.77736521 150.38140869 164.12492371 C135.19647456 167.73483903 117.1059456 165.92605406 102.38140869 161.12492371 C101.71386063 160.62611191 101.04631256 160.12730011 100.35853577 159.6133728 C95.78694659 157.32775395 91.21672924 157.40065522 86.16534424 157.14176941 C85.03319992 157.07305634 83.9010556 157.00434326 82.73460388 156.93354797 C78.99640618 156.70984523 75.25742079 156.50520351 71.51812744 156.30070496 C68.9244562 156.14922334 66.33085411 155.99655356 63.73731995 155.84274292 C57.61105447 155.48230036 51.48421539 155.13383845 45.35693246 154.79118842 C38.37930027 154.40031356 31.40258626 153.99411879 24.42590654 153.58664954 C10.07869811 152.74905214 -4.2695596 151.93065136 -18.61859131 151.12492371 C-18.94859131 151.78492371 -19.27859131 152.44492371 -19.61859131 153.12492371 C-31.53870474 153.67578903 -43.43401858 153.78240583 -53.18109131 145.81242371 C-56.74290859 142.31072149 -59.93221766 138.33266994 -61.00140381 133.33586121 C-61.89213784 130.14500386 -63.50512371 127.34667251 -65.05609131 124.43742371 C-71.17189303 112.9591236 -70.67093678 102.69670217 -69.86859131 89.99992371 C-69.76674365 88.26405243 -69.66576064 86.52813021 -69.56561279 84.79216003 C-69.36035491 81.27159299 -69.14729555 77.75161711 -68.9286499 74.2318573 C-68.68136874 70.22159364 -68.45882953 66.21067572 -68.25149536 62.19816589 C-68.07131961 58.73568755 -67.87508041 55.27415493 -67.68109131 51.81242371 C-67.58779541 49.94916443 -67.58779541 49.94916443 -67.49261475 48.04826355 C-66.64872343 34.09322974 -62.57103098 22.30355519 -52.61859131 12.12492371 C-35.98760676 -1.58564766 -20.37819994 -1.27604515 0 0 Z M908.38140869 189.12492371 C909.38140869 191.12492371 909.38140869 191.12492371 909.38140869 191.12492371 Z M770.38140869 295.12492371 C770.38140869 298.12492371 770.38140869 298.12492371 770.38140869 298.12492371 Z " fill="#6AA288" transform="translate(81.61859130859375,11.875076293945313)"/>
<path d="M0 0 C7.14329829 6.99000863 10.17746352 16.17338871 10.5 26 C10.17109947 36.02050277 7.00000414 44.70832902 0 52 C-1.94537009 53.56071737 -3.82538955 54.75736546 -6 56 C-5.40009248 60.2657876 -2.89845193 63.44928231 -0.52734375 66.91796875 C-0.0848378 67.57581863 0.35766815 68.23366852 0.81358337 68.91145325 C2.22446051 71.0071926 3.64302475 73.09757682 5.0625 75.1875 C6.48431568 77.2889287 7.90447587 79.39144218 9.3221283 81.49568176 C10.20415934 82.80405782 11.08883644 84.11065452 11.97633362 85.41532898 C15 89.88882497 15 89.88882497 15 91 C11.66048886 91.42406491 8.35464049 91.73619611 5 92 C4.33033203 92.06880371 3.66066406 92.13760742 2.97070312 92.20849609 C-9.93126352 93.4517449 -9.93126352 93.4517449 -14.2265625 90.4375 C-16.13589643 87.72869127 -17.54550143 84.98255799 -19 82 C-24.21445092 70.41860409 -24.21445092 70.41860409 -33.00976562 62.04589844 C-37.39658696 61.01958628 -41.55419942 61.30154772 -46 62 C-45.9278125 62.71800781 -45.855625 63.43601562 -45.78125 64.17578125 C-44.88879896 74.12908942 -44.90510123 84.01454075 -45 94 C-50.74275178 95.16420351 -56.47487091 95.33942048 -62.3125 95.5625 C-63.36888672 95.6049585 -64.42527344 95.64741699 -65.51367188 95.69116211 C-74.34616914 96.02351759 -83.16277595 96.10806388 -92 96 C-92.79311367 94.27149655 -93.5844259 92.54216646 -94.375 90.8125 C-94.81585937 89.84957031 -95.25671875 88.88664062 -95.7109375 87.89453125 C-96.87321851 85.28468208 -97.95924781 82.66024041 -99 80 C-112.38130943 79.87188108 -125.63813878 80.23646507 -139 81 C-140.98 86.94 -142.96 92.88 -145 99 C-157.375 99.495 -157.375 99.495 -170 100 C-168.56247383 94.24989532 -166.68799235 88.64222661 -164.87182617 83.00292969 C-164.1968577 80.90409799 -163.52705511 78.80366394 -162.85742188 76.703125 C-159.23095258 65.39509541 -159.23095258 65.39509541 -157.0546875 60.17578125 C-153.84249703 52.41008169 -151.48390184 44.31447632 -148.9375 36.3125 C-147.88805364 33.01565134 -146.83401658 29.72031986 -145.77734375 26.42578125 C-145.54289047 25.68395096 -145.30843719 24.94212067 -145.06687927 24.17781067 C-143.61555456 19.65367923 -141.89824425 15.35471759 -140 11 C-139.25305801 8.55312106 -138.54368928 6.09441158 -137.875 3.625 C-136.10404624 -2.89595376 -136.10404624 -2.89595376 -135 -4 C-127.41353691 -5.31304169 -119.66827809 -5.1081732 -112 -5 C-106.25098251 6.36364236 -100.52541645 17.74922324 -95.51953125 29.46484375 C-93.92170344 33.18215524 -92.22729658 36.84175179 -90.5 40.5 C-88.23537049 45.29626773 -86.06980089 50.11620015 -84 55 C-81.29994665 61.2238518 -78.44275528 67.37182929 -75.54980469 73.5078125 C-75.26395508 74.11625 -74.97810547 74.7246875 -74.68359375 75.3515625 C-74.43150146 75.88604004 -74.17940918 76.42051758 -73.91967773 76.97119141 C-72.56468243 79.96031032 -71.28694796 82.98097731 -70 86 C-70.38481876 66.41647935 -70.88619349 46.8739945 -72.20007324 27.32843018 C-72.96502751 15.86553854 -73.23517081 4.48417464 -73 -7 C-14.22300033 -10.82719748 -14.22300033 -10.82719748 0 0 Z " fill="#FCFDFC" transform="translate(634,214)"/>
<path d="M0 0 C11.80314951 7.8292248 18.99369052 19.28327568 22.109375 33.0625 C22.40152024 36.29696511 22.44346143 39.50370899 22.421875 42.75 C22.41623535 43.63486084 22.4105957 44.51972168 22.40478516 45.43139648 C22.13305659 60.14374965 17.41385041 72.29943841 7.22265625 83.06640625 C-1.64140639 91.43893122 -13.70106697 96.4530221 -25.890625 97.0625 C-26.60863281 97.11277344 -27.32664063 97.16304688 -28.06640625 97.21484375 C-42.98811292 97.82538821 -57.72002333 93.19274424 -69.328125 83.75 C-79.65099255 73.82501599 -84.87324462 61.37752943 -85.18310547 47.17138672 C-85.30598788 31.15771079 -81.55661897 17.74619103 -70.56640625 5.6484375 C-51.7534683 -12.1558814 -21.58963985 -12.39596547 0 0 Z " fill="#FDFDFD" transform="translate(244.890625,50.9375)"/>
<path d="M0 0 C1.18360107 -0.02126953 2.36720215 -0.04253906 3.58666992 -0.06445312 C17.89519696 -0.12092486 31.31649062 3.56017004 42.06640625 13.43359375 C53.39534607 26.12746607 56.54175093 40.49540134 55.86669922 56.9921875 C54.90389879 69.12294824 48.6404091 80.22708884 39.8671875 88.4375 C27.58740188 98.6486479 12.59875928 101.10372639 -2.9375 101.8125 C-3.83815186 101.8549585 -4.73880371 101.89741699 -5.66674805 101.94116211 C-15.5484578 102.36611753 -25.42404126 102.34016832 -35.3125 102.25 C-36.71349828 81.7959281 -37.8049671 61.32665613 -38.83471298 40.85108948 C-38.93722012 38.81805098 -39.04060066 36.78505853 -39.14419556 34.7520752 C-39.34088151 30.877809 -39.53427264 27.00339286 -39.7265625 23.12890625 C-39.78584427 21.96430374 -39.84512604 20.79970123 -39.90620422 19.59980774 C-40.20557818 13.47389024 -40.37328495 7.38320144 -40.3125 1.25 C-26.88012679 0.58619641 -13.44901277 0.11850118 0 0 Z " fill="#FDFDFD" transform="translate(688.3125,201.75)"/>
<path d="M0 0 C1.00023193 0.00523682 2.00046387 0.01047363 3.03100586 0.01586914 C4.1105957 0.0190918 5.19018555 0.02231445 6.30249023 0.02563477 C8.00695312 0.03820312 8.00695312 0.03820312 9.74584961 0.05102539 C11.45611328 0.05779297 11.45611328 0.05779297 13.20092773 0.06469727 C16.02845312 0.07652792 18.85587601 0.09301129 21.68334961 0.11352539 C21.14920726 5.01071169 20.42878551 9.51044153 18.99584961 14.23852539 C17.21796501 20.26286818 15.5176052 26.30197122 13.87084961 32.36352539 C13.61859619 33.28979736 13.36634277 34.21606934 13.10644531 35.17041016 C11.71151715 40.30102609 10.32776421 45.43453346 8.95288086 50.57055664 C5.95403127 61.76792088 2.90238876 72.94271864 -0.31518555 84.0793457 C-2.13220136 90.39344452 -3.78305277 96.72353528 -5.31665039 103.11352539 C-12.90665039 103.11352539 -20.49665039 103.11352539 -28.31665039 103.11352539 C-32.81848714 94.10985188 -32.81848714 94.10985188 -34.69848633 89.47949219 C-35.11862 88.44870041 -35.53875366 87.41790863 -35.97161865 86.35588074 C-36.41032288 85.26914566 -36.8490271 84.18241058 -37.30102539 83.06274414 C-37.76148254 81.92698441 -38.2219397 80.79122467 -38.6963501 79.62104797 C-39.66278032 77.23405073 -40.62749294 74.84635743 -41.59057617 72.45800781 C-43.06985168 68.79309417 -44.55820373 65.13195346 -46.04711914 61.47094727 C-46.98647356 59.1476028 -47.92529455 56.82404257 -48.86352539 54.50024414 C-49.31032654 53.40338791 -49.75712769 52.30653168 -50.21746826 51.17643738 C-50.62499329 50.1614064 -51.03251831 49.14637543 -51.45239258 48.10058594 C-51.8133905 47.207603 -52.17438843 46.31462006 -52.54632568 45.39457703 C-53.31665039 43.11352539 -53.31665039 43.11352539 -53.31665039 40.11352539 C-53.97665039 40.11352539 -54.63665039 40.11352539 -55.31665039 40.11352539 C-55.68790039 41.90790039 -55.68790039 41.90790039 -56.06665039 43.73852539 C-57.1948833 48.79612121 -58.60680801 53.74867646 -60.05493164 58.72290039 C-61.04008632 62.12132095 -61.98579408 65.52946053 -62.92211914 68.94165039 C-66.36999297 81.47542464 -70.08178936 93.82209948 -74.31665039 106.11352539 C-81.90665039 106.44352539 -89.49665039 106.77352539 -97.31665039 107.11352539 C-98.0466626 105.17517822 -98.7766748 103.23683105 -99.52880859 101.23974609 C-101.99111357 94.70192387 -104.45379946 88.16424518 -106.91665363 81.62662983 C-108.40408254 77.67823544 -109.89139849 73.7297986 -111.37841797 69.78125 C-112.817252 65.96065564 -114.2564666 62.1402048 -115.695858 58.3198204 C-116.2685103 56.79964635 -116.84101248 55.27941574 -117.41336441 53.75912857 C-120.46732735 45.64718027 -123.53107258 37.53926262 -126.62670898 29.44311523 C-127.14661547 28.08124586 -127.66648834 26.71936365 -128.18632507 25.35746765 C-129.15451932 22.82120234 -130.12700855 20.28672637 -131.10188293 17.75300598 C-131.52749008 16.63858627 -131.95309723 15.52416656 -132.39160156 14.37597656 C-132.76532394 13.40262863 -133.13904633 12.4292807 -133.52409363 11.42643738 C-134.31665039 9.11352539 -134.31665039 9.11352539 -134.31665039 7.11352539 C-128.78956428 6.17132413 -123.47906687 5.9923639 -117.87915039 6.05102539 C-117.0522168 6.05553711 -116.2252832 6.06004883 -115.37329102 6.06469727 C-113.35437893 6.07636728 -111.33550465 6.09429821 -109.31665039 6.11352539 C-108.96997314 7.07838867 -108.6232959 8.04325195 -108.26611328 9.03735352 C-101.40975254 28.11133216 -94.51446452 47.16504581 -87.31665039 66.11352539 C-85.22167651 62.97106457 -84.42965708 60.50165921 -83.39868164 56.88305664 C-83.03460205 55.61574707 -82.67052246 54.3484375 -82.29541016 53.04272461 C-81.90664404 51.67049518 -81.51789106 50.29826203 -81.12915039 48.92602539 C-80.72860665 47.5275846 -80.32747893 46.12931094 -79.92578125 44.73120117 C-79.11164793 41.89560869 -78.29993207 39.059344 -77.49047852 36.22241211 C-75.80181565 30.30673069 -74.09363921 24.39676789 -72.37915039 18.48852539 C-72.09724854 17.50730713 -71.81534668 16.52608887 -71.52490234 15.51513672 C-71.26153076 14.60658936 -70.99815918 13.69804199 -70.72680664 12.76196289 C-70.38854858 11.58899658 -70.38854858 11.58899658 -70.04345703 10.39233398 C-69.25617321 7.92390698 -68.27889974 5.51914877 -67.31665039 3.11352539 C-60.05665039 3.11352539 -52.79665039 3.11352539 -45.31665039 3.11352539 C-40.81665039 12.11352539 -40.81665039 12.11352539 -38.93481445 16.79516602 C-38.30461395 18.3558783 -38.30461395 18.3558783 -37.66168213 19.94812012 C-37.00362579 21.59233948 -37.00362579 21.59233948 -36.33227539 23.26977539 C-35.87181824 24.41265015 -35.41136108 25.5555249 -34.93695068 26.73303223 C-33.47705531 30.35861375 -32.02178746 33.98603185 -30.56665039 37.61352539 C-29.57384207 40.08255005 -28.57998045 42.55114905 -27.58618164 45.01977539 C-25.15950101 51.04962137 -22.73660991 57.08097912 -20.31665039 63.11352539 C-18.00322208 59.64338293 -17.31386783 56.36491703 -16.44165039 52.36352539 C-16.0905308 50.81495162 -15.73763328 49.26678001 -15.38305664 47.71899414 C-15.20532715 46.94217285 -15.02759766 46.16535156 -14.84448242 45.36499023 C-13.12249726 38.01987128 -11.05967698 30.75569874 -9.02368164 23.49243164 C-8.80252686 22.70215576 -8.58137207 21.91187988 -8.35351562 21.09765625 C-7.92722809 19.57821087 -7.49854107 18.05943559 -7.06689453 16.54150391 C-5.79339074 12.01526996 -4.71083647 7.48383937 -3.76831055 2.87670898 C-3.08522916 0.21010695 -2.80646261 0.1375282 0 0 Z " fill="#FCFDFD" transform="translate(458.316650390625,211.886474609375)"/>
<path d="M0 0 C59.95760347 1.80954122 59.95760347 1.80954122 72 14 C73.97060488 16.54053473 75.59015194 19.1123594 77 22 C77.36738281 22.73476562 77.73476563 23.46953125 78.11328125 24.2265625 C79.29023679 27.90778908 79.29955515 31.42669391 79.25 35.25 C79.24178223 36.00925781 79.23356445 36.76851562 79.22509766 37.55078125 C79.00864325 48.40608595 76.81888814 56.12516101 68.96875 64.05078125 C65.80837423 66.89865717 62.8802336 69.21509254 59 71 C59.3609375 71.61488281 59.721875 72.22976562 60.09375 72.86328125 C60.78984375 74.07564453 60.78984375 74.07564453 61.5 75.3125 C62.19609375 76.51326172 62.19609375 76.51326172 62.90625 77.73828125 C64 80 64 80 64 83 C64.66 83 65.32 83 66 83 C67.83979221 86.6217573 69.67072866 90.24791898 71.5 93.875 C72.02464844 94.90753906 72.54929687 95.94007813 73.08984375 97.00390625 C73.83427734 98.48310547 73.83427734 98.48310547 74.59375 99.9921875 C75.05458984 100.90339355 75.51542969 101.81459961 75.99023438 102.75341797 C77 105 77 105 77 107 C73.0827588 106.89004549 69.16647155 106.75943266 65.25 106.625 C64.13882813 106.5940625 63.02765625 106.563125 61.8828125 106.53125 C60.27792969 106.47324219 60.27792969 106.47324219 58.640625 106.4140625 C57.65610352 106.3826416 56.67158203 106.3512207 55.65722656 106.31884766 C52.78419622 105.97410513 51.31460315 105.73896303 49 104 C47.61563839 101.67685663 46.45306746 99.46665923 45.328125 97.0234375 C45.00084412 96.33819 44.67356323 95.6529425 44.33636475 94.94692993 C43.29589386 92.76160484 42.27282889 90.56862926 41.25 88.375 C40.54670577 86.89008792 39.84229143 85.4057058 39.13671875 83.921875 C37.40924626 80.2880858 35.70555368 76.64445425 34 73 C29.05 72.67 24.1 72.34 19 72 C19.020625 74.145 19.04125 76.29 19.0625 78.5 C19.10013 86.6950805 18.6011849 94.8303266 18 103 C9.92138585 103.09579384 2.01659634 103.12513633 -6 102 C-6.28945375 91.96560321 -5.68147788 82.14121474 -4.78393555 72.14868164 C-4.13072239 64.82010362 -3.64899252 57.50250252 -3.34204102 50.15136719 C-3.29454712 49.08450684 -3.29454712 49.08450684 -3.24609375 47.99609375 C-3.22216553 47.38950928 -3.1982373 46.7829248 -3.17358398 46.15795898 C-3.02712825 44.33725265 -2.77623594 42.52539594 -2.50219727 40.71948242 C-1.99313836 36.94917982 -1.80929323 33.29452136 -1.71875 29.4921875 C-1.70034058 28.80367706 -1.68193115 28.11516663 -1.66296387 27.40579224 C-1.58511674 24.49218592 -1.51662509 21.57838104 -1.44775391 18.66455078 C-1.39576963 16.52365699 -1.33864911 14.38294189 -1.28125 12.2421875 C-1.25095703 10.9722998 -1.22066406 9.70241211 -1.18945312 8.39404297 C-1.0267972 5.48007048 -0.66776373 2.83394059 0 0 Z " fill="#FBFDFC" transform="translate(476,60)"/>
<path d="M0 0 C16.49858966 -1.39867118 16.49858966 -1.39867118 21.77655029 2.21704102 C25.46673109 6.11521807 27.64472636 10.95382924 29.9375 15.75 C30.70687794 17.2138446 31.48414451 18.67356878 32.26904297 20.12915039 C33.82682938 23.03247935 35.34918416 25.95015766 36.84619141 28.88525391 C39.79286341 34.59973597 43.17893885 40.01122866 46.625 45.4375 C47.16374756 46.30536133 47.70249512 47.17322266 48.25756836 48.06738281 C50.37418411 51.72728415 50.37418411 51.72728415 53 55 C53.77601563 53.98164062 54.55203125 52.96328125 55.3515625 51.9140625 C61.84188677 43.40662633 68.3697928 34.93026407 74.94848633 26.4909668 C79.39564474 20.78448049 83.81017956 15.05390892 88.20703125 9.30859375 C90 7 90 7 91 6 C92.4887186 5.91330568 93.981445 5.89296506 95.47265625 5.90234375 C96.28226807 5.90484131 97.09187988 5.90733887 97.92602539 5.90991211 C98.96106201 5.91901611 99.99609863 5.92812012 101.0625 5.9375 C102.83520291 5.94898847 104.60790819 5.9601147 106.38061523 5.97094727 C107.92041016 5.98063151 109.46020508 5.99031576 111 6 C110.39020173 25.66692393 109.35054481 45.28744182 108.13537598 64.92443848 C107.95248414 67.89737908 107.77371432 70.87056221 107.59492493 73.84375191 C107.41990438 76.74708544 107.24263645 79.65027835 107.06466675 82.55343246 C106.94120263 84.57226862 106.81933156 86.59120201 106.69750977 88.61013794 C106.62072998 89.84368011 106.5439502 91.07722229 106.46484375 92.34814453 C106.399021 93.41920441 106.33319824 94.49026428 106.26538086 95.59378052 C105.94249547 99.73808284 105.45904855 103.86856306 105 108 C97.41 107.67 89.82 107.34 82 107 C81.9059244 98.39796245 82.22471376 89.99975596 83 81.4375 C83.94504466 70.26068533 84.22774486 59.2101082 84 48 C83.44054687 48.72960937 82.88109375 49.45921875 82.3046875 50.2109375 C77.03548663 57.07275857 71.745256 63.91795137 66.4375 70.75 C65.5081665 71.94761963 65.5081665 71.94761963 64.56005859 73.16943359 C63.9820752 73.91273926 63.4040918 74.65604492 62.80859375 75.421875 C62.29095459 76.08799805 61.77331543 76.75412109 61.23999023 77.44042969 C59.22975579 79.96875764 59.22975579 79.96875764 55.75390625 80.44140625 C45.36810953 80.99680315 45.36810953 80.99680315 41.45849609 77.70019531 C37.86672868 73.27118917 35.60826254 68.04492886 33 63 C29.04 56.4 25.08 49.8 21 43 C19.68 62.47 18.36 81.94 17 102 C1.25 102 1.25 102 -6 101 C-4.54340805 67.30672843 -2.16308491 33.65352652 0 0 Z " fill="#FCFDFC" transform="translate(274,48)"/>
<path d="M0 0 C5.25413535 0.23623309 10.50806989 0.47581612 15.76171875 0.72265625 C19.72220918 0.90522115 23.68178765 1.05982357 27.64453125 1.18359375 C42.92193725 1.69789632 59.04876295 2.33635187 70.875 13.3125 C78.91411845 21.97730455 79.52559965 31.66790749 79.12744141 42.94580078 C78.59754939 51.48701034 74.9887676 57.98756138 69 64 C62.52803738 69 62.52803738 69 59 69 C64.89330255 81.3885833 70.80960306 93.75677049 77 106 C64.13 105.505 64.13 105.505 51 105 C35 74.72972973 35 74.72972973 35 72 C29.72 71.67 24.44 71.34 19 71 C18.67 81.23 18.34 91.46 18 102 C10.41 102 2.82 102 -5 102 C-5.22186211 84.32975672 -4.36172114 66.92975965 -3.0625 49.3125 C-2.69599319 44.2254885 -2.33387313 39.13817082 -1.97265625 34.05078125 C-1.88601715 32.84084503 -1.79937805 31.63090881 -1.71011353 30.38430786 C-0.99458308 20.26219305 -0.44326662 10.13741141 0 0 Z " fill="#FCFDFD" transform="translate(898,86)"/>
<path d="M0 0 C2.20826378 -0.02722517 4.41662638 -0.04649729 6.625 -0.0625 C7.85476562 -0.07410156 9.08453125 -0.08570313 10.3515625 -0.09765625 C16.84984086 0.07628054 16.84984086 0.07628054 20 1 C21.75290059 3.14691269 22.97586288 4.96424468 24.28515625 7.359375 C24.66370758 8.01226501 25.04225891 8.66515503 25.43228149 9.33782959 C26.6608884 11.46516966 27.8612774 13.60709973 29.0625 15.75 C29.90047883 17.2102904 30.74074112 18.66927275 31.58325195 20.12695312 C32.85101282 22.32104376 34.11730462 24.51582962 35.37608337 26.71508789 C39.01129609 33.06366062 42.80700093 39.2978301 46.6875 45.5 C47.23349854 46.37624023 47.77949707 47.25248047 48.34204102 48.15527344 C49.55851692 50.10532177 50.77753913 52.0537004 52 54 C55.59032226 50.54312335 58.67220972 46.9871607 61.6875 43 C62.5715388 41.83718197 63.45565547 40.67442313 64.33984375 39.51171875 C64.78440918 38.92438965 65.22897461 38.33706055 65.68701172 37.73193359 C70.52460439 31.35077287 70.52460439 31.35077287 72.98730469 28.25927734 C75.56486034 24.99757992 77.86463586 21.66795717 80.07421875 18.14453125 C88.16292435 5.79641125 88.16292435 5.79641125 93.48388672 4.30273438 C99.15916294 3.81937443 104.48170439 4.71749633 110 6 C110.40101918 21.42558367 109.24220034 36.7681436 108.20404053 52.14764404 C107.83160541 57.67956627 107.46807857 63.21208558 107.10523605 68.74464417 C106.97389525 70.74673836 106.84200699 72.74879663 106.71011353 74.75085449 C106.01124407 85.49674281 105.46882586 96.24168027 105 107 C97.41 106.67 89.82 106.34 82 106 C82 99.62931254 82.00760056 93.54232261 82.4375 87.234375 C82.52869988 85.83463894 82.61984394 84.43489924 82.7109375 83.03515625 C82.85423752 80.89881612 82.99913685 78.76259675 83.14550781 76.62646484 C83.81732078 66.72979143 84.1295518 56.92150895 84 47 C83.6690332 47.43642822 83.33806641 47.87285645 82.99707031 48.32250977 C82.52881836 48.93924561 82.06056641 49.55598145 81.578125 50.19140625 C81.05347656 50.88242432 80.52882813 51.57344238 79.98828125 52.28540039 C78.81958377 53.81636126 77.64499156 55.34283842 76.46484375 56.86499023 C73.51457937 60.67166835 70.63535043 64.48898604 67.921875 68.46875 C60.90342856 78.47528253 60.90342856 78.47528253 55.5 79.96484375 C52.15123118 79.99848094 49.26339189 79.7251982 46 79 C45.35337402 78.93417725 44.70674805 78.86835449 44.04052734 78.80053711 C40.91577975 77.57464008 40.15131098 75.45617797 38.5390625 72.56640625 C37.90226562 71.44169922 37.26546875 70.31699219 36.609375 69.15820312 C35.94746771 67.95988329 35.28601165 66.76131411 34.625 65.5625 C33.97257475 64.39840361 33.31894012 63.23498416 32.6640625 62.07226562 C31.38492488 59.79895956 30.10913808 57.52376441 28.83691406 55.24658203 C26.30928239 50.77921814 23.67452603 46.38064607 21 42 C20.58912768 47.65171687 20.18030001 53.30357703 19.77319336 58.95556641 C19.63505411 60.86966742 19.49640044 62.78373139 19.35717773 64.69775391 C18.45355234 77.12668078 17.64523857 89.55487685 17 102 C13.54133208 101.86149295 10.08316725 101.71295273 6.625 101.5625 C5.64015625 101.52318359 4.6553125 101.48386719 3.640625 101.44335938 C2.69960938 101.40146484 1.75859375 101.35957031 0.7890625 101.31640625 C-0.08024902 101.27974854 -0.94956055 101.24309082 -1.84521484 101.20532227 C-4 101 -4 101 -6 100 C-4.92515808 79.07628202 -3.8045489 58.15508633 -2.63540649 37.23641968 C-2.50399339 34.87987969 -2.37343228 32.52329203 -2.2437439 30.16665649 C-2.05947901 26.82320185 -1.87194722 23.47994525 -1.68359375 20.13671875 C-1.62947327 19.14433197 -1.57535278 18.15194519 -1.51959229 17.12948608 C-1.19198523 11.38971442 -0.68620017 5.70832076 0 0 Z " fill="#FDFDFD" transform="translate(48,35)"/>
<path d="M0 0 C2.18742879 -0.02730494 4.37495907 -0.04653255 6.5625 -0.0625 C7.78066406 -0.07410156 8.99882813 -0.08570312 10.25390625 -0.09765625 C11.49011719 -0.06542969 12.72632813 -0.03320312 14 0 C15.16917969 -0.05027344 16.33835937 -0.10054688 17.54296875 -0.15234375 C23.21250705 1.73750235 24.95743026 6.45852207 27.75 11.5 C28.98240006 13.6248446 30.2167906 15.74853592 31.453125 17.87109375 C32.35708008 19.44479736 32.35708008 19.44479736 33.27929688 21.05029297 C35.56598797 24.97024215 38.00343978 28.77398738 40.5 32.5625 C41.37174038 33.89541065 42.24281835 35.22875473 43.11328125 36.5625 C43.56525879 37.25472656 44.01723633 37.94695312 44.48291016 38.66015625 C47.58253995 43.44078901 50.63180896 48.25371404 53.6875 53.0625 C54.31269531 54.04613525 54.93789063 55.02977051 55.58203125 56.04321289 C57.0552255 58.36180098 58.5279122 60.68070932 60 63 C60.88929549 57.48868385 61.26783424 52.05518411 61.5 46.48046875 C61.5609082 45.13254997 61.5609082 45.13254997 61.62304688 43.75740051 C61.75191555 40.90089939 61.87641336 38.04423418 62 35.1875 C62.12381316 32.34149014 62.2487043 29.49554812 62.37695312 26.6497345 C62.45641502 24.88559968 62.53341448 23.12135143 62.60742188 21.35697937 C62.86857015 15.54575011 63.36739859 9.78232431 64 4 C66.7084017 3.97285566 69.41652721 3.95309154 72.125 3.9375 C73.26582031 3.92493164 73.26582031 3.92493164 74.4296875 3.91210938 C75.17734375 3.90888672 75.925 3.90566406 76.6953125 3.90234375 C77.7164917 3.89448853 77.7164917 3.89448853 78.75830078 3.88647461 C81.55291411 4.02800099 84.24445885 4.52508059 87 5 C87.10765159 15.35092649 86.80588339 25.62765341 86.1953125 35.9609375 C86.1101944 37.44575719 86.02531002 38.93059029 85.94064331 40.41543579 C85.76356887 43.50304152 85.58335869 46.59044355 85.40087891 49.67773438 C85.17041166 53.58197138 84.94840584 57.48663551 84.72886848 61.39150047 C84.55576658 64.45142073 84.37778649 67.51104371 84.19848251 70.57060623 C84.11485868 72.00783156 84.03271019 73.44514372 83.9522438 74.88254929 C83.36426475 85.32319218 82.29344989 95.6232966 81 106 C74.4 106 67.8 106 61 106 C59.8553125 103.8034375 59.8553125 103.8034375 58.6875 101.5625 C55.60935852 95.92162678 52.19148457 90.56259282 48.67163086 85.18920898 C43.80130617 77.74042935 39.09338229 70.19345467 34.39086914 62.63793945 C30.29942969 56.06683973 26.16788933 49.52289031 22 43 C20.24808031 54.75316994 19.65435368 66.44206848 19.34204102 78.31713867 C19.1201522 86.57219309 18.65413226 94.76798507 18 103 C9.95561244 103.13179015 2.01791928 102.64697908 -6 102 C-6.21414551 91.98748996 -5.55420479 82.03798708 -4.94140625 72.05078125 C-4.83148677 70.22480026 -4.72178502 68.39880614 -4.61228943 66.57279968 C-4.38319464 62.76446692 -4.15180841 58.95628257 -3.91870117 55.14819336 C-3.62103968 50.28326292 -3.3286398 45.41803349 -3.03788853 40.55268574 C-2.81247062 36.78893847 -2.58451882 33.02534798 -2.35578728 29.26180077 C-2.24703374 27.46820587 -2.13899661 25.67456739 -2.03170967 23.88088417 C-1.88117257 21.37135552 -1.72727793 18.86205402 -1.57250977 16.3527832 C-1.52935135 15.62271561 -1.48619293 14.89264801 -1.44172668 14.14045715 C-1.14443053 9.3950206 -0.62909956 4.71325289 0 0 Z " fill="#FBFDFC" transform="translate(636,70)"/>
<path d="M0 0 C4.25011564 0.14656255 8.50006432 0.29753446 12.75 0.44921875 C13.93722656 0.4901062 15.12445313 0.53099365 16.34765625 0.57312012 C56.6287543 2.02450531 56.6287543 2.02450531 69.68359375 14.625 C71.27575425 16.34024523 72.65105547 18.08833008 74 20 C74.41507812 20.58652344 74.83015625 21.17304687 75.2578125 21.77734375 C80.07256603 30.27891905 79.36792423 42.3951423 77.1171875 51.6171875 C74.01481369 59.69157762 68.99845 67.19790132 61.0390625 71.125 C60.36617188 71.41375 59.69328125 71.7025 59 72 C58.18273437 72.37125 57.36546875 72.7425 56.5234375 73.125 C44.64450275 77.83730469 31.45135684 76.60662669 19 75 C19.01160156 76.01578125 19.02320313 77.0315625 19.03515625 78.078125 C19.10038743 86.4440242 18.88359699 94.6689427 18 103 C10.24506486 103.09928082 2.68931285 103.06059488 -5 102 C-5.20513572 90.71859363 -4.56171467 79.51892198 -3.90625 68.26171875 C-3.79382862 66.28491503 -3.68173292 64.30809277 -3.56994629 62.33125305 C-3.27726492 57.1707603 -2.98020897 52.01052868 -2.68218994 46.8503418 C-2.37789255 41.56769836 -2.07780399 36.28481595 -1.77734375 31.00195312 C-1.18897652 20.66773281 -0.59597991 10.33378389 0 0 Z " fill="#FCFDFC" transform="translate(394,55)"/>
<path d="M0 0 C0.82363037 0.0407666 1.64726074 0.0815332 2.49584961 0.12353516 C3.85806641 0.18927734 3.85806641 0.18927734 5.24780273 0.25634766 C6.20493164 0.30791016 7.16206055 0.35947266 8.14819336 0.41259766 C9.54328125 0.47833984 9.54328125 0.47833984 10.96655273 0.54541016 C13.67742765 0.68257319 16.37953422 0.82534069 19.08569336 1.03759766 C19.73508881 1.03300034 20.38448425 1.02840302 21.05355835 1.02366638 C23.25567304 1.1028159 25.00705857 1.29660388 27.08569336 2.03759766 C28.99525464 4.62241765 30.04906748 6.4997103 31.24194336 9.40087891 C31.58694885 10.16785599 31.93195435 10.93483307 32.28741455 11.72505188 C33.41681524 14.25463314 34.50080009 16.80114987 35.58569336 19.35009766 C36.36305557 21.11294028 37.14336699 22.87448513 37.92651367 24.63476562 C39.54028141 28.27533849 41.13587524 31.92306526 42.71655273 35.578125 C44.97475817 40.79608843 47.27957249 45.99217605 49.60131836 51.18212891 C52.59132163 57.86968421 55.5627854 64.56498175 58.515625 71.26902771 C60.93571068 76.74448863 63.46142197 82.16573135 66.02807617 87.57421875 C67.08569336 90.03759766 67.08569336 90.03759766 67.08569336 92.03759766 C59.16569336 92.03759766 51.24569336 92.03759766 43.08569336 92.03759766 C41.93069336 89.76884766 40.77569336 87.50009766 39.58569336 85.16259766 C39.22024414 84.44990723 38.85479492 83.7372168 38.47827148 83.00292969 C36.08569336 78.25981988 36.08569336 78.25981988 36.08569336 76.03759766 C35.44768799 76.06789063 34.80968262 76.09818359 34.15234375 76.12939453 C21.12116004 76.73783626 8.13157556 77.19712611 -4.91430664 77.03759766 C-5.09606445 77.73884766 -5.27782227 78.44009766 -5.46508789 79.16259766 C-5.84213867 80.58572266 -5.84213867 80.58572266 -6.22680664 82.03759766 C-6.47043945 82.96572266 -6.71407227 83.89384766 -6.96508789 84.85009766 C-8.09378829 88.64030146 -9.52572066 92.33470171 -10.91430664 96.03759766 C-18.83430664 96.03759766 -26.75430664 96.03759766 -34.91430664 96.03759766 C-31.53938882 83.66289899 -31.53938882 83.66289899 -29.98828125 79.20019531 C-29.64007828 78.19259155 -29.29187531 77.18498779 -28.93312073 76.14685059 C-28.56468552 75.09243774 -28.19625031 74.0380249 -27.81665039 72.95166016 C-27.42569687 71.82328735 -27.03474335 70.69491455 -26.63194275 69.53234863 C-25.37532443 65.90789821 -24.11369566 62.28521601 -22.85180664 58.66259766 C-21.98901071 56.17817395 -21.12654402 53.69363587 -20.2644043 51.20898438 C-18.98774756 47.53011123 -17.7107622 43.85135533 -16.43225098 40.17312622 C-14.09767548 33.45587378 -11.77398588 26.73514568 -9.47290039 20.00634766 C-9.23266647 19.30472504 -8.99243256 18.60310242 -8.74491882 17.88021851 C-7.69148721 14.8030063 -6.64054939 11.72498341 -5.59375 8.64550781 C-5.24320557 7.62247559 -4.89266113 6.59944336 -4.53149414 5.54541016 C-4.23871582 4.6857666 -3.9459375 3.82612305 -3.64428711 2.94042969 C-2.53535758 0.04979532 -2.53535758 0.04979532 0 0 Z " fill="#FCFDFD" transform="translate(769.914306640625,203.96240234375)"/>
<path d="M0 0 C7.59 0 15.18 0 23 0 C22.85739969 5.000113 22.71234766 10.00010363 22.5625 15 C22.52940231 16.10826645 22.52940231 16.10826645 22.49563599 17.23892212 C22.25895091 25.0642625 22.00872928 32.87797969 21.4375 40.6875 C21.02138396 46.81327377 20.82654925 52.92430634 20.75 59.0625 C20.7286499 59.94446045 20.7072998 60.8264209 20.68530273 61.73510742 C20.65594171 67.31103371 21.4880826 71.02056777 24 76 C24.33 76.99 24.66 77.98 25 79 C27.42383077 80.16953416 27.42383077 80.16953416 30 81 C30.99 81.495 30.99 81.495 32 82 C38.852883 82.54074342 45.13323473 82.83135691 51 79 C61.05755249 68.75420455 58.76631411 47.0013436 59.5625 33.625 C59.75072809 30.52008216 59.94061701 27.41528395 60.13328552 24.31063843 C60.25188539 22.39416492 60.36783009 20.4775245 60.48060608 18.56069946 C60.53413742 17.6855368 60.58766876 16.81037415 60.64282227 15.90869141 C60.71038475 14.77290146 60.71038475 14.77290146 60.77931213 13.61416626 C61.07889781 10.06541311 61.55826565 6.53387482 62 3 C69.59 3.33 77.18 3.66 85 4 C84.55251566 18.94597685 83.84348114 33.84479732 82.81265259 48.76101685 C82.68839987 50.5746135 82.56804463 52.38848175 82.45175171 54.2026062 C81.44098329 69.82757347 79.63968345 84.36031655 68 96 C56.611395 104.57297203 43.84579234 106.03412557 30 105 C19.43069607 103.28605882 10.50979505 97.58214924 3.69140625 89.44140625 C-2.18202749 80.96358619 -3.19440382 72.2505611 -3.1875 62.25 C-3.18741943 61.14487061 -3.18733887 60.03974121 -3.18725586 58.90112305 C-3.11657577 47.85791684 -2.61479838 36.84047819 -2.0625 25.8125 C-2.01902435 24.9313855 -1.97554871 24.050271 -1.93075562 23.14245605 C-1.80350415 20.60121556 -1.67064815 18.0603446 -1.53515625 15.51953125 C-1.49655487 14.76313858 -1.45795349 14.00674591 -1.41818237 13.22743225 C-1.37823151 12.51018478 -1.33828064 11.79293732 -1.29711914 11.05395508 C-1.26380997 10.43732498 -1.23050079 9.82069489 -1.19618225 9.18537903 C-0.92011329 6.11009922 -0.43665913 3.05661394 0 0 Z " fill="#FCFDFC" transform="translate(805,81)"/>
<path d="M0 0 C22.35469749 1.08257722 44.68487688 2.26347972 67 4 C67.02712351 6.39591038 67.0468982 8.79150957 67.0625 11.1875 C67.07087891 11.86103516 67.07925781 12.53457031 67.08789062 13.22851562 C67.10606538 16.95434131 66.89299392 20.3788042 66 24 C51.27510544 24.41156538 36.66946626 23.16267271 22 22 C22.01160156 23.27617188 22.02320313 24.55234375 22.03515625 25.8671875 C22.04453417 27.53645687 22.05363437 29.20572783 22.0625 30.875 C22.07087891 31.71675781 22.07925781 32.55851562 22.08789062 33.42578125 C22.09272461 34.63427734 22.09272461 34.63427734 22.09765625 35.8671875 C22.10551147 36.98262939 22.10551147 36.98262939 22.11352539 38.12060547 C22 40 22 40 21 42 C21.63671631 41.98912354 22.27343262 41.97824707 22.92944336 41.96704102 C30.51501399 41.89562661 38.00340453 42.33431242 45.5625 42.9375 C46.73619141 43.02451172 47.90988281 43.11152344 49.11914062 43.20117188 C50.23611328 43.28818359 51.35308594 43.37519531 52.50390625 43.46484375 C53.51267822 43.543396 54.5214502 43.62194824 55.56079102 43.70288086 C58 44 58 44 60 45 C60 51.27 60 57.54 60 64 C46.25167016 64.29251766 32.69424 63.16105593 19 62 C19 68.93 19 75.86 19 83 C21.75730469 83.13277344 24.51460937 83.26554687 27.35546875 83.40234375 C30.03300445 83.53385016 32.71047346 83.6666434 35.38793945 83.79956055 C37.24529549 83.89107587 39.10271772 83.98125832 40.96020508 84.07006836 C43.63381267 84.19813252 46.3071437 84.3310262 48.98046875 84.46484375 C49.80773972 84.50343002 50.63501068 84.5420163 51.48735046 84.58177185 C52.26778214 84.62173782 53.04821381 84.6617038 53.85229492 84.70288086 C54.87488655 84.75284462 54.87488655 84.75284462 55.9181366 84.80381775 C58.30163562 85.02842432 60.65243258 85.53048652 63 86 C63 92.6 63 99.2 63 106 C50.90796926 106.20109668 38.92125562 105.51915337 26.85620117 104.77319336 C23.4142253 104.56106559 19.97182418 104.35725822 16.52929688 104.15429688 C14.33069944 104.02132401 12.13213057 103.88787766 9.93359375 103.75390625 C8.90962997 103.6934462 7.8856662 103.63298615 6.83067322 103.57069397 C5.39746483 103.48071388 5.39746483 103.48071388 3.93530273 103.38891602 C3.10038803 103.33784195 2.26547333 103.28676788 1.40525818 103.23414612 C-1.1125886 102.98903977 -3.52917643 102.53631279 -6 102 C-5.39020173 82.33307607 -4.35054481 62.71255818 -3.13537598 43.07556152 C-2.95248414 40.10262092 -2.77371432 37.12943779 -2.59492493 34.15624809 C-2.41990438 31.25291456 -2.24263645 28.34972165 -2.06466675 25.44656754 C-1.94120263 23.42773138 -1.81933156 21.40879799 -1.69750977 19.38986206 C-1.29350192 12.89908169 -0.79106817 6.45543129 0 0 Z " fill="#F9FCFA" transform="translate(563,65)"/>
<path d="M0 0 C11.19144551 -0.24851204 22.25867802 0.43147975 33.41552734 1.22680664 C36.38994586 1.43856404 39.36481657 1.6426938 42.33984375 1.84570312 C44.25523911 1.97872419 46.17060486 2.11217257 48.0859375 2.24609375 C49.40179337 2.33678383 49.40179337 2.33678383 50.74423218 2.42930603 C51.57935333 2.48929276 52.41447449 2.54927948 53.27490234 2.61108398 C53.99656586 2.66215805 54.71822937 2.71323212 55.46176147 2.76585388 C58.98356154 3.09073108 62.49055837 3.5613198 66 4 C66 10.27 66 16.54 66 23 C51.27796526 23.3235612 36.67029 22.10347379 22 21 C21.67 27.93 21.34 34.86 21 42 C22.794375 41.95875 24.58875 41.9175 26.4375 41.875 C37.65940851 41.85183817 48.83055248 43.01066849 60 44 C60.0272616 46.04159095 60.04651345 48.08328963 60.0625 50.125 C60.07410156 51.26195312 60.08570313 52.39890625 60.09765625 53.5703125 C60.00520301 56.81727013 59.5659374 59.80803475 59 63 C49.84092809 63.13757237 40.81519908 62.73860003 31.6875 62 C30.45837891 61.90460938 29.22925781 61.80921875 27.96289062 61.7109375 C24.97488112 61.47840758 21.98730591 61.24137252 19 61 C19.01160156 62.00160156 19.02320313 63.00320312 19.03515625 64.03515625 C19.04454398 65.37760228 19.05364312 66.72005036 19.0625 68.0625 C19.07410156 69.37347656 19.08570313 70.68445313 19.09765625 72.03515625 C19 76 19 76 18 83 C40.275 83.99 40.275 83.99 63 85 C63 99 63 99 62 105 C46.85285118 105.22905238 31.8598387 104.51994834 16.75 103.5 C14.52868438 103.35487751 12.30733026 103.2103431 10.0859375 103.06640625 C4.72349736 102.71768779 -0.63842875 102.36182026 -6 102 C-5.57365661 92.31198686 -5.13562393 82.6245278 -4.6875 72.9375 C-4.6544363 72.22261791 -4.6213726 71.50773582 -4.58730698 70.77119064 C-3.49072866 47.14307151 -2.08020915 23.56455571 0 0 Z " fill="#FBFDFC" transform="translate(733,76)"/>
<path d="M0 0 C6.75800426 5.52927621 11.14948288 12.54138044 12.06640625 21.2578125 C12.41717722 30.83046534 10.6424596 39.01426504 4.625 46.625 C-0.76509343 52.29449352 -8.13735118 55.7927103 -15.9140625 56.48828125 C-26.39858811 56.75108598 -33.8904068 54.29742784 -41.5625 47.04296875 C-48.68332377 39.47709349 -49.99191589 31.46409474 -49.6875 21.37109375 C-49.09589606 13.38259174 -45.20887175 6.73840719 -39.5 1.25 C-26.69689565 -8.66755621 -13.60882741 -7.32783015 0 0 Z " fill="#516F63" transform="translate(232.25,69.75)"/>
<path d="M0 0 C4.45798044 -0.14667378 8.91533054 -0.23453375 13.375 -0.3125 C14.62667969 -0.35439453 15.87835937 -0.39628906 17.16796875 -0.43945312 C26.27907775 -0.55870848 33.13666308 0.72109842 40.10473633 6.85180664 C46.05933359 12.81625843 49.08803959 20.62790136 49.5 29 C49.07608107 37.61512656 45.87752048 45.13396585 39.91796875 51.34765625 C31.96374594 58.2002759 22.11410914 59.32697146 12 59.125 C11.12988281 59.11597656 10.25976562 59.10695313 9.36328125 59.09765625 C7.2420658 59.07434619 5.12099438 59.03848579 3 59 C2.56890135 52.04426017 2.14212044 45.08826481 1.71826172 38.13208008 C1.57373547 35.76841309 1.42824106 33.40480507 1.28173828 31.04125977 C1.07065955 27.63312797 0.86312718 24.22479536 0.65625 20.81640625 C0.59062866 19.76916885 0.52500732 18.72193146 0.45739746 17.64295959 C0.10350028 11.74867869 -0.06438794 5.9049103 0 0 Z " fill="#6D947B" transform="translate(672,223)"/>
<path d="M0 0 C20.54960444 -0.73978576 20.54960444 -0.73978576 28.5 5.4375 C32.00381854 9.028914 33.3016256 11.73063977 33.4375 16.75 C33.30698343 22.28063982 31.68662736 25.90793792 28 30 C21.89698525 35.08584563 15.6715731 34.52580445 8 34 C4.99630434 33.69623506 1.99759235 33.35878356 -1 33 C-1.02936502 29.18751655 -1.04692035 25.37506274 -1.0625 21.5625 C-1.07087891 20.49322266 -1.07925781 19.42394531 -1.08789062 18.32226562 C-1.10684631 12.12375772 -0.82063259 6.1450519 0 0 Z " fill="#8BB994" transform="translate(416,77)"/>
<path d="M0 0 C1.01513672 -0.0309375 1.01513672 -0.0309375 2.05078125 -0.0625 C7.47598951 -0.10447453 11.47544433 1.06133164 15.51953125 4.75 C19.38492229 9.71424803 20.30089854 12.96799659 19.875 19.25 C17.82004324 24.76593655 14.8767401 27.85578518 9.54223633 30.33349609 C6.75628021 31.29079397 4.5102217 31.56104485 1.57421875 31.6640625 C0.59775391 31.70273437 -0.37871094 31.74140625 -1.38476562 31.78125 C-2.39216797 31.8121875 -3.39957031 31.843125 -4.4375 31.875 C-5.46423828 31.91367187 -6.49097656 31.95234375 -7.54882812 31.9921875 C-10.07404265 32.08614897 -12.59925592 32.1718154 -15.125 32.25 C-15.97714779 25.18111222 -16.25246455 18.2411168 -16.1875 11.125 C-16.18298828 10.16851562 -16.17847656 9.21203125 -16.17382812 8.2265625 C-16.16220017 5.90097242 -16.14586102 3.5755224 -16.125 1.25 C-10.72393499 0.50085899 -5.45135996 0.04201433 0 0 Z " fill="#97C89F" transform="translate(601.125,224.75)"/>
<path d="M0 0 C26.25029738 1.07606397 26.25029738 1.07606397 32 7 C34.89321058 11.70274511 34.61323424 16.65166595 34 22 C31.66095144 27.14590684 28.16632676 29.8750635 23 32 C20.16005186 32.46962995 17.43249842 32.42874656 14.5625 32.3125 C13.49418945 32.29799805 13.49418945 32.29799805 12.40429688 32.28320312 C7.54746262 32.18174337 2.80995282 31.66699458 -2 31 C-1.85871184 27.70812224 -1.71110793 24.4165548 -1.5625 21.125 C-1.50352539 19.74828125 -1.50352539 19.74828125 -1.44335938 18.34375 C-1.16223612 12.2022881 -0.67681987 6.11047926 0 0 Z " fill="#4B9984" transform="translate(920,107)"/>
<path d="M0 0 C23.7778115 -0.6993474 23.7778115 -0.6993474 29.671875 4.46484375 C33.54092636 8.90990556 34.29697187 11.99850278 34.21484375 17.68359375 C33.77919627 22.3806657 31.8969321 25.17033781 28.5 28.3125 C24.59923935 30.94551344 21.66464503 31.13615672 17.0625 31.125 C16.02222656 31.12757812 14.98195313 31.13015625 13.91015625 31.1328125 C8.58881203 30.95206754 3.30182955 30.4781722 -2 30 C-1.86138974 25.56224325 -1.71288136 21.12487223 -1.5625 16.6875 C-1.52318359 15.42486328 -1.48386719 14.16222656 -1.44335938 12.86132812 C-1.40146484 11.65283203 -1.35957031 10.44433594 -1.31640625 9.19921875 C-1.27974854 8.08377686 -1.24309082 6.96833496 -1.20532227 5.8190918 C-1 3 -1 3 0 0 Z " fill="#9FD4A6" transform="translate(498,82)"/>
<path d="M0 0 C0.99 0.495 0.99 0.495 2 1 C1.88878818 31.47203946 -15.43308434 58.87096606 -36 80 C-36.55429687 80.62777344 -37.10859375 81.25554687 -37.6796875 81.90234375 C-50.90327538 96.46199362 -71.39828388 105.78124011 -90 111 C-91.68029297 111.47953125 -91.68029297 111.47953125 -93.39453125 111.96875 C-107.21249679 115.31855983 -123.00013568 115.46588519 -137 113 C-137.33 112.01 -137.66 111.02 -138 110 C-137.32235596 109.9906543 -136.64471191 109.98130859 -135.9465332 109.97167969 C-97.67828779 109.31349555 -66.30225567 100.64029247 -38 74 C-37.40832031 73.47277344 -36.81664062 72.94554687 -36.20703125 72.40234375 C-18.95195807 56.37684823 -9.57629505 33.54503568 -3.6328125 11.24707031 C-2.5639106 7.45147883 -1.28536411 3.72689336 0 0 Z " fill="#000000" transform="translate(1006,219)"/>
<path d="M0 0 C0.66 0 1.32 0 2 0 C3.75088093 3.81209603 5.50054232 7.62475063 7.25 11.4375 C7.74113281 12.50677734 8.23226562 13.57605469 8.73828125 14.67773438 C10.16287008 17.78333802 11.58219106 20.89129626 13 24 C13.41314453 24.8986377 13.82628906 25.79727539 14.25195312 26.72314453 C14.61740234 27.5273584 14.98285156 28.33157227 15.359375 29.16015625 C15.67874023 29.85890869 15.99810547 30.55766113 16.32714844 31.27758789 C17 33 17 33 17 35 C7.64087671 35.99263429 -1.60394198 36.10731538 -11 36 C-9.44435164 28.0764504 -6.97360331 20.57495755 -4.375 12.9375 C-3.95476562 11.69033203 -3.53453125 10.44316406 -3.1015625 9.15820312 C-2.07181153 6.10405535 -1.03786449 3.05139815 0 0 Z " fill="#83BB96" transform="translate(511,240)"/>
<path d="M0 0 C2.7125806 3.29867273 4.38719998 6.74265609 6.13671875 10.62890625 C6.42102249 11.25981674 6.70532623 11.89072723 6.99824524 12.54075623 C7.59482542 13.86842155 8.1888722 15.19722786 8.78051758 16.52709961 C9.68759774 18.56271935 10.60593908 20.59299014 11.52539062 22.62304688 C12.10485033 23.91636058 12.68364942 25.2099705 13.26171875 26.50390625 C14.05002075 28.26456421 14.05002075 28.26456421 14.85424805 30.06079102 C16 33 16 33 16 36 C6.96278689 36.94242818 -1.92551747 37.11157151 -11 37 C-10.35900719 30.15616908 -8.19548721 23.8834424 -6.0625 17.375 C-5.70220703 16.25609375 -5.34191406 15.1371875 -4.97070312 13.984375 C-3.44028011 9.2606384 -1.8880265 4.59470381 0 0 Z " fill="#3B504B" transform="translate(782,226)"/>
<path d="M0 0 C9.21791688 -0.13460452 18.34953878 0.20430309 27.54272461 0.79956055 C29.72279753 0.93977013 31.90330427 1.0707827 34.08398438 1.20117188 C35.47659653 1.28852165 36.86917615 1.37639199 38.26171875 1.46484375 C39.50912842 1.543396 40.75653809 1.62194824 42.04174805 1.70288086 C45 2 45 2 47 3 C49.37402501 3.07116382 51.75000677 3.08409085 54.125 3.0625 C55.40632813 3.05347656 56.68765625 3.04445312 58.0078125 3.03515625 C58.99523437 3.02355469 59.98265625 3.01195312 61 3 C53.9746174 8.84049867 44.24313238 8.38852214 35.5 8.375 C34.46061279 8.37411377 33.42122559 8.37322754 32.3503418 8.37231445 C21.6671546 8.21085777 8.98874083 7.37066098 0 1 C0 0.67 0 0.34 0 0 Z " fill="#020202" transform="translate(179,169)"/>
<path d="M0 0 C0.33 0 0.66 0 1 0 C0.48694854 6.28488035 -1.16158309 11.07950839 -5.62109375 15.66796875 C-13.30118685 22.13457521 -23.02986327 23.53841175 -32.8203125 23.3046875 C-38.65637537 22.74545789 -44.31848302 21.41197463 -50 20 C-50 19.67 -50 19.34 -50 19 C-47.69 19 -45.38 19 -43 19 C-43 18.67 -43 18.34 -43 18 C-42.10539063 18.04640625 -41.21078125 18.0928125 -40.2890625 18.140625 C-32.13094122 18.38415101 -26.29275574 17.59410005 -19 14 C-17.73116379 13.49495343 -16.46050309 12.9944497 -15.1875 12.5 C-12.00612572 11.00288269 -9.71572408 9.20193844 -7 7 C-6.29875 6.87625 -5.5975 6.7525 -4.875 6.625 C-2.60572485 6.10010094 -2.60572485 6.10010094 -1.25 2.9375 C-0.63125 1.4834375 -0.63125 1.4834375 0 0 Z " fill="#010302" transform="translate(992,198)"/>
<path d="M0 0 C1.05960938 0.00676758 1.05960938 0.00676758 2.140625 0.01367188 C3.88545275 0.02546125 5.630237 0.04339676 7.375 0.0625 C7.045 1.0525 6.715 2.0425 6.375 3.0625 C-7.82603789 5.59669195 -21.55263288 7.1270061 -36 7.1875 C-37.41007324 7.19463013 -37.41007324 7.19463013 -38.84863281 7.2019043 C-43.88199242 7.18978329 -48.66419114 6.92346683 -53.625 6.0625 C-52.33583283 3.48416567 -51.27348346 3.11857222 -48.625 2.0625 C-46.44262695 1.85131836 -46.44262695 1.85131836 -44.11328125 1.90234375 C-42.85354492 1.9187793 -42.85354492 1.9187793 -41.56835938 1.93554688 C-40.26608398 1.96745117 -40.26608398 1.96745117 -38.9375 2 C-37.20450734 2.03427898 -35.47142695 2.06445457 -33.73828125 2.08984375 C-32.97298096 2.10781006 -32.20768066 2.12577637 -31.41918945 2.14428711 C-29.60120907 2.26343362 -29.60120907 2.26343362 -28.625 1.0625 C-27.23230358 0.9880143 -25.83593808 0.97920549 -24.44140625 1 C-23.17393555 1.01160156 -23.17393555 1.01160156 -21.88085938 1.0234375 C-20.08919189 1.04942253 -18.29752521 1.07546394 -16.50585938 1.1015625 C-15.65958984 1.10929687 -14.81332031 1.11703125 -13.94140625 1.125 C-13.16224854 1.13660156 -12.38309082 1.14820313 -11.58032227 1.16015625 C-7.71367919 0.96704135 -4.09793595 -0.04914499 0 0 Z " fill="#020403" transform="translate(707.625,326.9375)"/>
<path d="M0 0 C0.91586866 2.5056784 1.07751859 3.74711149 0.28515625 6.33203125 C-3.45034416 13.91044263 -8.01027944 19.70567025 -16.0625 22.875 C-24.97878983 25.38270651 -34.91359429 25.66893166 -44 24 C-44 23.67 -44 23.34 -44 23 C-47.63 22.67 -51.26 22.34 -55 22 C-55 21.67 -55 21.34 -55 21 C-54.21463867 20.96559814 -53.42927734 20.93119629 -52.62011719 20.89575195 C-48.99527096 20.72398985 -45.37305904 20.51843847 -41.75 20.3125 C-40.51507812 20.25900391 -39.28015625 20.20550781 -38.0078125 20.15039062 C-26.6762531 19.46453308 -17.33415094 16.57560844 -8.62109375 9.13671875 C-7 8 -7 8 -4 8 C-3.896875 7.4225 -3.79375 6.845 -3.6875 6.25 C-2.90207202 3.67950842 -1.69495803 2.06342716 0 0 Z " fill="#030506" transform="translate(856,301)"/>
<path d="M0 0 C0.99 1.0209375 0.99 1.0209375 2 2.0625 C2.99519779 3.04654711 3.99581073 4.02513013 5 5 C5.58136719 5.56589844 6.16273437 6.13179687 6.76171875 6.71484375 C17.84747461 16.99109208 29.36775413 19.15240039 44 20 C43.34 21.32 42.68 22.64 42 24 C30.07988657 24.55086532 18.18457273 24.65748212 8.4375 16.6875 C3.54320752 11.85516059 0.68118261 6.98212179 0 0 Z " fill="#000202" transform="translate(20,141)"/>
<path d="M0 0 C0.68964844 -0.00386719 1.37929688 -0.00773437 2.08984375 -0.01171875 C7.24666707 -0.00166646 7.24666707 -0.00166646 9.5 1.125 C10.94848582 1.20842159 12.40070869 1.23232861 13.8515625 1.22265625 C14.70234375 1.21943359 15.553125 1.21621094 16.4296875 1.21289062 C17.31914063 1.20451172 18.20859375 1.19613281 19.125 1.1875 C20.47078125 1.18073242 20.47078125 1.18073242 21.84375 1.17382812 C24.06256648 1.16202591 26.28125018 1.14556155 28.5 1.125 C28.5 1.455 28.5 1.785 28.5 2.125 C25.20153979 2.84847179 22.06430059 3.27954321 18.69140625 3.40625 C17.33329834 3.46159912 17.33329834 3.46159912 15.94775391 3.51806641 C14.99562012 3.55335449 14.04348633 3.58864258 13.0625 3.625 C6.568053 3.88435096 0.10157165 4.20149556 -6.375 4.75 C-11.2862213 5.13368916 -15.6550995 4.99708209 -20.5 4.125 C-20.5 3.795 -20.5 3.465 -20.5 3.125 C-19.72914063 2.99222656 -18.95828125 2.85945313 -18.1640625 2.72265625 C-17.16117188 2.54605469 -16.15828125 2.36945313 -15.125 2.1875 C-14.12726562 2.01347656 -13.12953125 1.83945312 -12.1015625 1.66015625 C-3.92405336 -0.02200404 -3.92405336 -0.02200404 0 0 Z " fill="#030503" transform="translate(562.5,333.875)"/>
<path d="M0 0 C0.69738281 0.00902344 1.39476562 0.01804687 2.11328125 0.02734375 C3.82566958 0.05080112 5.53788004 0.08666896 7.25 0.125 C3.59148383 4.50322427 -1.34508092 4.52822098 -6.75 5.125 C-13.17740745 5.44437428 -19.41616718 5.27660597 -25.75 4.125 C-25.75 3.795 -25.75 3.465 -25.75 3.125 C-24.78578125 3.07601563 -23.8215625 3.02703125 -22.828125 2.9765625 C-21.56484375 2.90179688 -20.3015625 2.82703125 -19 2.75 C-17.74703125 2.68039062 -16.4940625 2.61078125 -15.203125 2.5390625 C-11.89568647 2.34985834 -11.89568647 2.34985834 -9.78125 1.09375 C-6.63269398 -0.40786903 -3.41232149 -0.08385667 0 0 Z " fill="#040704" transform="translate(645.75,329.875)"/>
<path d="M0 0 C1.17433594 -0.02578125 2.34867188 -0.0515625 3.55859375 -0.078125 C6.5625 0.25 6.5625 0.25 8.47265625 1.765625 C8.83230469 2.25546875 9.19195313 2.7453125 9.5625 3.25 C6.51404415 4.77422793 3.34260776 4.44053322 0 4.4375 C-0.71929688 4.43814453 -1.43859375 4.43878906 -2.1796875 4.43945312 C-7.5172296 4.38655856 -12.28647409 3.72172169 -17.4375 2.25 C-17.4375 1.92 -17.4375 1.59 -17.4375 1.25 C-11.63349906 0.50109665 -5.85125724 0.12152144 0 0 Z " fill="#020503" transform="translate(905.4375,212.75)"/>
<path d="M0 0 C1.17433594 -0.02578125 2.34867187 -0.0515625 3.55859375 -0.078125 C6.5625 0.25 6.5625 0.25 8.47265625 1.765625 C8.83230469 2.25546875 9.19195312 2.7453125 9.5625 3.25 C0.41015397 5.22888563 -8.41863812 4.44113347 -17.4375 2.25 C-17.4375 1.92 -17.4375 1.59 -17.4375 1.25 C-11.63349906 0.50109665 -5.85125724 0.12152144 0 0 Z " fill="#020302" transform="translate(282.4375,174.75)"/>
<path d="M0 0 C-4.20996104 2.80664069 -7.88524688 3.1297726 -12.86328125 3.09765625 C-14.19262695 3.09282227 -14.19262695 3.09282227 -15.54882812 3.08789062 C-16.46083984 3.07951172 -17.37285156 3.07113281 -18.3125 3.0625 C-19.24384766 3.05798828 -20.17519531 3.05347656 -21.13476562 3.04882812 C-23.42324373 3.03709234 -25.71158808 3.02067363 -28 3 C-27.67 2.34 -27.34 1.68 -27 1 C-23.62511542 0.83094103 -20.25007637 0.66518231 -16.875 0.5 C-15.44800781 0.42845703 -15.44800781 0.42845703 -13.9921875 0.35546875 C-9.32313191 0.12850077 -4.67636296 -0.06298132 0 0 Z " fill="#000000" transform="translate(765,326)"/>
<path d="M0 0 C0.33 0 0.66 0 1 0 C1.0272367 2.52090778 1.04695207 5.04151457 1.0625 7.5625 C1.07087891 8.26697266 1.07925781 8.97144531 1.08789062 9.69726562 C1.10869817 14.21250341 0.97777989 18.56926028 0 23 C-0.99 23.66 -1.98 24.32 -3 25 C-2.67 19.39 -2.34 13.78 -2 8 C-1.67 8 -1.34 8 -1 8 C-0.67 5.36 -0.34 2.72 0 0 Z " fill="#A2C4A7" transform="translate(474,81)"/>
<path d="M0 0 C-5.37673365 2.98707425 -10.418133 3.13716373 -16.5 3.125 C-17.7890625 3.12757813 -19.078125 3.13015625 -20.40625 3.1328125 C-23.42209033 3.02135753 -26.07792088 2.70804225 -29 2 C-29 1.67 -29 1.34 -29 1 C-25.66682397 0.83008756 -22.33343885 0.66466921 -19 0.5 C-18.06542969 0.45230469 -17.13085938 0.40460938 -16.16796875 0.35546875 C-10.77043673 0.0912539 -5.40391896 -0.05098037 0 0 Z " fill="#000000" transform="translate(457,341)"/>
<path d="M0 0 C-5.55651968 3.70434645 -11.35193739 3.12513036 -17.8125 3.0625 C-18.69615234 3.05798828 -19.57980469 3.05347656 -20.49023438 3.04882812 C-22.66018559 3.03709866 -24.83010172 3.01916495 -27 3 C-23.96564772 0.97709848 -23.170503 0.73051627 -19.7265625 0.5859375 C-18.9015625 0.54726563 -18.0765625 0.50859375 -17.2265625 0.46875 C-16.36804688 0.4378125 -15.50953125 0.406875 -14.625 0.375 C-13.77421875 0.33632813 -12.9234375 0.29765625 -12.046875 0.2578125 C-8.0294609 0.08259818 -4.02202589 -0.04965464 0 0 Z " fill="#000000" transform="translate(494,339)"/>
<path d="M0 0 C3.77143982 0.1097568 7.54187097 0.24041479 11.3125 0.375 C12.9202832 0.42140625 12.9202832 0.42140625 14.56054688 0.46875 C15.58857422 0.50742188 16.61660156 0.54609375 17.67578125 0.5859375 C18.62364502 0.6173584 19.57150879 0.6487793 20.5480957 0.68115234 C23 1 23 1 26 3 C22.97892098 3.0543251 19.95883472 3.09382927 16.9375 3.125 C16.08994141 3.14175781 15.24238281 3.15851563 14.36914062 3.17578125 C9.16581799 3.21596135 4.92530179 2.69745815 0 1 C0 0.67 0 0.34 0 0 Z " fill="#000000" transform="translate(384,183)"/>
<path d="M0 0 C1.40668945 0.00966797 1.40668945 0.00966797 2.84179688 0.01953125 C4.30649414 0.04466797 4.30649414 0.04466797 5.80078125 0.0703125 C6.78884766 0.07933594 7.77691406 0.08835937 8.79492188 0.09765625 C11.2346189 0.1212282 13.67382822 0.15413228 16.11328125 0.1953125 C13.05171471 1.97200473 10.8729191 2.43582068 7.34765625 2.390625 C6.45820313 2.38417969 5.56875 2.37773437 4.65234375 2.37109375 C3.73195313 2.35433594 2.8115625 2.33757812 1.86328125 2.3203125 C0.92742187 2.31128906 -0.0084375 2.30226563 -0.97265625 2.29296875 C-3.27760532 2.26944886 -5.58203035 2.23658103 -7.88671875 2.1953125 C-4.63281887 0.02604591 -3.75275918 -0.04548799 0 0 Z " fill="#000000" transform="translate(369.88671875,344.8046875)"/>
<path d="M0 0 C3.62564187 0.10954408 7.25021431 0.2402496 10.875 0.375 C11.90753906 0.4059375 12.94007813 0.436875 14.00390625 0.46875 C14.99003906 0.50742188 15.97617187 0.54609375 16.9921875 0.5859375 C17.90339355 0.6173584 18.81459961 0.6487793 19.75341797 0.68115234 C22 1 22 1 24 3 C7.1070615 3.3690205 7.1070615 3.3690205 0 1 C0 0.67 0 0.34 0 0 Z " fill="#000000" transform="translate(352,181)"/>
<path d="M0 0 C2.7084017 -0.02714434 5.41652721 -0.04690846 8.125 -0.0625 C8.88554687 -0.07087891 9.64609375 -0.07925781 10.4296875 -0.08789062 C14.7389644 -0.10646509 18.75516474 0.13882735 23 1 C23 1.33 23 1.66 23 2 C19.91674642 2.0582253 16.83363495 2.09367134 13.75 2.125 C12.44095703 2.15013672 12.44095703 2.15013672 11.10546875 2.17578125 C10.26113281 2.18222656 9.41679687 2.18867188 8.546875 2.1953125 C7.77182617 2.20578613 6.99677734 2.21625977 6.19824219 2.22705078 C3.74116461 1.97326556 2.12688458 1.22444152 0 0 Z " fill="#000000" transform="translate(128,168)"/>
<path d="M0 0 C0 3 0 3 -1.96875 5.26171875 C-2.8040625 6.06222656 -3.639375 6.86273438 -4.5 7.6875 C-5.3353125 8.49574219 -6.170625 9.30398437 -7.03125 10.13671875 C-7.6809375 10.75160156 -8.330625 11.36648437 -9 12 C-9.66 11.67 -10.32 11.34 -11 11 C-7.6189962 6.86378916 -4.33409466 3.18683431 0 0 Z " fill="#368070" transform="translate(315,203)"/>
<path d="M0 0 C4 1 4 1 4 1 Z " fill="#000000" transform="translate(386,344)"/>
<path d="M0 0 C3 1 3 1 3 1 Z " fill="#000000" transform="translate(863,212)"/>
<path d="M0 0 C3 1 3 1 3 1 Z " fill="#000000" transform="translate(125,167)"/>
<path d="M0 0 C2 1 2 1 2 1 Z " fill="#000000" transform="translate(592,334)"/>
</svg>
